<!DOCTYPE svg PUBLIC "-//W3C//DTD SVG 1.1//EN" "http://www.w3.org/Graphics/SVG/1.1/DTD/svg11.dtd">
<!-- Uploaded to: SVG Repo, www.svgrepo.com, Transformed by: SVG Repo Mixer Tools -->
<svg version="1.1" id="Uploaded to svgrepo.com" xmlns="http://www.w3.org/2000/svg" xmlns:xlink="http://www.w3.org/1999/xlink" width="64px" height="64px" viewBox="0 0 32 32" xml:space="preserve" fill="#000000">
<g id="SVGRepo_bgCarrier" stroke-width="0"/>
<g id="SVGRepo_tracerCarrier" stroke-linecap="round" stroke-linejoin="round"/>
<g id="SVGRepo_iconCarrier"> <style type="text/css"> .stone_een{fill:#ffffff;} </style> <path class="stone_een" d="M31,25c0,1.657-1.343,3-3,3H4c-1.657,0-3-1.343-3-3c0-0.552,0.448-1,1-1h28C30.552,24,31,24.448,31,25z M3,23v-2C3,13.989,8.554,8.29,15.5,8.025V7.929C14.639,7.706,14,6.931,14,6c0-1.105,0.895-2,2-2c1.105,0,2,0.895,2,2 c0,0.931-0.639,1.706-1.5,1.929v0.096C23.446,8.29,29,13.989,29,21v2H3z M16,7c0.551,0,1-0.449,1-1s-0.449-1-1-1s-1,0.449-1,1 S15.449,7,16,7z M8,15c0,1.105,0.895,2,2,2c1.105,0,2-0.895,2-2s-0.895-2-2-2C8.895,13,8,13.895,8,15z M10,16c0.551,0,1-0.449,1-1 s-0.449-1-1-1s-1,0.449-1,1S9.449,16,10,16z"/> </g>
</svg>