<?xml version="1.0" encoding="UTF-8" standalone="no"?>
<svg
   viewBox="0 0 576 512"
   version="1.1"
   id="svg20"
   sodipodi:docname="stok-b.svg"
   inkscape:version="1.2.2 (732a01da63, 2022-12-09, custom)"
   xmlns:inkscape="http://www.inkscape.org/namespaces/inkscape"
   xmlns:sodipodi="http://sodipodi.sourceforge.net/DTD/sodipodi-0.dtd"
   xmlns="http://www.w3.org/2000/svg"
   xmlns:svg="http://www.w3.org/2000/svg">
  <defs
     id="defs24" />
  <sodipodi:namedview
     id="namedview22"
     pagecolor="#505050"
     bordercolor="#ffffff"
     borderopacity="1"
     inkscape:showpageshadow="0"
     inkscape:pageopacity="0"
     inkscape:pagecheckerboard="1"
     inkscape:deskcolor="#505050"
     showgrid="false"
     inkscape:zoom="1.5390625"
     inkscape:cx="141.3198"
     inkscape:cy="256.32487"
     inkscape:window-width="1920"
     inkscape:window-height="954"
     inkscape:window-x="0"
     inkscape:window-y="27"
     inkscape:window-maximized="1"
     inkscape:current-layer="svg20" />
  <!--! Font Awesome Pro 6.4.2 by @fontawesome - https://fontawesome.com License - https://fontawesome.com/license (Commercial License) Copyright 2023 Fonticons, Inc. -->
  <path
     d="M0 32C0 14.3 14.3 0 32 0h72.9c27.5 0 52 17.6 60.7 43.8L257.7 320c30.1 .5 56.8 14.9 74 37l202.1-67.4c16.8-5.6 34.9 3.5 40.5 20.2s-3.5 34.9-20.2 40.5L352 417.7c-.9 52.2-43.5 94.3-96 94.3c-53 0-96-43-96-96c0-30.8 14.5-58.2 37-75.8L104.9 64H32C14.3 64 0 49.7 0 32zM244.8 134.5c-5.5-16.8 3.7-34.9 20.5-40.3L311 79.4l19.8 60.9 60.9-19.8L371.8 59.6l45.7-14.8c16.8-5.5 34.9 3.7 40.3 20.5l49.4 152.2c5.5 16.8-3.7 34.9-20.5 40.3L334.5 307.2c-16.8 5.5-34.9-3.7-40.3-20.5L244.8 134.5z"
     id="path18"
     style="fill:#ffffff" />
</svg>
