<?xml version="1.0" encoding="UTF-8" standalone="no"?>
<svg
   viewBox="0 0 640 512"
   version="1.1"
   id="svg20"
   sodipodi:docname="travel-w.svg"
   inkscape:version="1.2.2 (732a01da63, 2022-12-09, custom)"
   xmlns:inkscape="http://www.inkscape.org/namespaces/inkscape"
   xmlns:sodipodi="http://sodipodi.sourceforge.net/DTD/sodipodi-0.dtd"
   xmlns="http://www.w3.org/2000/svg"
   xmlns:svg="http://www.w3.org/2000/svg">
  <defs
     id="defs24" />
  <sodipodi:namedview
     id="namedview22"
     pagecolor="#505050"
     bordercolor="#ffffff"
     borderopacity="1"
     inkscape:showpageshadow="0"
     inkscape:pageopacity="0"
     inkscape:pagecheckerboard="1"
     inkscape:deskcolor="#505050"
     showgrid="false"
     inkscape:zoom="1.5878906"
     inkscape:cx="319.92128"
     inkscape:cy="256.62977"
     inkscape:window-width="1920"
     inkscape:window-height="954"
     inkscape:window-x="1920"
     inkscape:window-y="27"
     inkscape:window-maximized="1"
     inkscape:current-layer="svg20" />
  <!--! Font Awesome Pro 6.4.2 by @fontawesome - https://fontawesome.com License - https://fontawesome.com/license (Commercial License) Copyright 2023 Fonticons, Inc. -->
  <path
     d="M381 114.9L186.1 41.8c-16.7-6.2-35.2-5.3-51.1 2.7L89.1 67.4C78 73 77.2 88.5 87.6 95.2l146.9 94.5L136 240 77.8 214.1c-8.7-3.9-18.8-3.7-27.3 .6L18.3 230.8c-9.3 4.7-11.8 16.8-5 24.7l73.1 85.3c6.1 7.1 15 11.2 24.3 11.2H248.4c5 0 9.9-1.2 14.3-3.4L535.6 212.2c46.5-23.3 82.5-63.3 100.8-112C645.9 75 627.2 48 600.2 48H542.8c-20.2 0-40.2 4.8-58.2 14L381 114.9zM0 480c0 17.7 14.3 32 32 32H608c17.7 0 32-14.3 32-32s-14.3-32-32-32H32c-17.7 0-32 14.3-32 32z"
     id="path18"
     style="fill:#ffffff" />
</svg>
